<?xml version="1.0" encoding="UTF-8"?>
<svg xmlns="http://www.w3.org/2000/svg" viewBox="0 0 152 40" role="img" aria-label="cuvetsmo ai">
  <title>cuvetsmo ai wordmark</title>
  <!--
    NEW brand: owl-in-chat-bubble mark (sky tile + white owl, matching
    app/icon.svg and the SiteHeader logo lockup) followed by the serif
    wordmark "cuvetsmo ai" with the italic "ai" in sky-700.
  -->
  <g transform="translate(2 4)">
    <rect width="32" height="32" rx="8" fill="#0ea5e9"/>
    <g transform="translate(16 16) scale(0.2304) translate(-50 -50)" fill="#ffffff">
      <path d="M31 21 L25 6 L44 18 Z M69 21 L75 6 L56 18 Z"/>
      <path fill-rule="evenodd" d="M27 17 H73 A15 15 0 0 1 88 32 V56 A15 15 0 0 1 73 71 H47 L31 85 L33 71 H27 A15 15 0 0 1 12 56 V32 A15 15 0 0 1 27 17 Z M38 44 m-10 0 a10 10 0 1 0 20 0 a10 10 0 1 0 -20 0 Z M62 44 m-10 0 a10 10 0 1 0 20 0 a10 10 0 1 0 -20 0 Z M50 51 L56 61 L44 61 Z"/>
      <circle cx="38" cy="44" r="3.4"/>
      <circle cx="62" cy="44" r="3.4"/>
    </g>
  </g>
  <text x="44" y="27"
        font-family="'IBM Plex Serif', 'Plex Serif', Georgia, 'Times New Roman', serif"
        font-size="18"
        font-weight="500"
        fill="#1C1917"
        letter-spacing="0.2">cuvetsmo <tspan fill="#0369a1" font-style="italic">ai</tspan></text>
</svg>
